# xmcd
#
# Track frame offsets:
#	150
#	21860
#	39552
#	64917
#	84727
#	109057
#	126070
#	137922
#	149790
#	171482
#	189172
#	214515
#	234317
#	258610
#	275585
#	287430
#	310717
#
# Disc length: 4155 seconds
#
# Revision: 1
# Processed by: cddbd v1.4PL0 Copyright (c) Steve Scherf et al.
# Submitted via: audiograbber 1.80.04
#
DISCID=01103911
DTITLE=Stevie Ray Vaughan - Cound Choice Stevie Ray Vaughan Karaoke #2319
DYEAR=2001
DGENRE=Blues
TTITLE0=Karaoke The Sky Is Cryin
TTITLE1=Karaoke Pride and Joy
TTITLE2=Karaoke Texas Flood
TTITLE3=Karaoke Crossfire
TTITLE4=Karaoke Tight Rope
TTITLE5=Karaoke Empty Arms
TTITLE6=Karaoke Life By The Drop
TTITLE7=Karaoke The House Is a Rockin
TTITLE8=Karaoke The Sky Is Cryin w-vocal
TTITLE9=Karaoke Pride and Joy w-vocal
TTITLE10=Karaoke Texas Flood w-vocal
TTITLE11=Karaoke Crossfire w-vocal
TTITLE12=Karaoke Tight Rope w-vocal
TTITLE13=Karaoke Empty Arms w-vocal
TTITLE14=Karaoke Life By The Drop w-vocal
TTITLE15=Karaoke The House Is a Rockin w-vocal
TTITLE16=Data Track
EXTD=This is a karaoke disc
EXTT0=
EXTT1=
EXTT2=
EXTT3=
EXTT4=
EXTT5=
EXTT6=
EXTT7=
EXTT8=
EXTT9=
EXTT10=
EXTT11=
EXTT12=
EXTT13=
EXTT14=
EXTT15=
EXTT16=
PLAYORDER=
